<svg width="567" height="567" viewBox="0 0 567 567" fill="none" xmlns="http://www.w3.org/2000/svg">
<path d="M25 312.198H58.9378C84.4612 312.198 100.448 318.098 100.448 341.558C100.448 356.228 91.0524 364.717 77.5895 366.363C91.3329 368.029 102.832 375.896 102.832 393.134C102.832 417.197 85.0222 423.839 58.6573 423.839C50.8039 423.839 30.6095 423.839 25 423.679V312.158V312.198ZM60.0597 363.955C79.9736 363.955 84.7417 356.389 84.7417 341.719C84.7417 321.751 76.4676 318.259 58.9378 318.259H40.286V363.955H60.0597ZM58.9378 417.819C77.0286 417.819 86.705 413.725 86.705 392.853C86.705 377.722 81.5162 369.393 60.3402 369.393H40.286V417.819H58.9378Z" fill="#231F20"/>
<path d="M135.909 312.198H219.892V318.259H185.673V423.859H170.107V318.259H135.889V312.198H135.909Z" fill="#231F20"/>
<path d="M249.903 368.189C249.903 328.554 267.994 311.295 300.389 311.295C308.242 311.295 316.516 312.359 324.51 314.165V319.603C318.059 318.399 311.327 317.637 304.736 317.637C275.847 317.637 266.311 330.641 266.311 367.868C266.311 405.095 275.847 418.401 304.736 418.401C311.748 418.401 317.919 417.498 324.51 416.434V421.873C316.376 423.679 308.523 424.742 300.389 424.742C267.994 424.742 249.903 407.804 249.903 368.149V368.189Z" fill="#231F20"/>
<path d="M368.805 312.198H384.512V417.799H432.614V423.859H368.805V312.198Z" fill="#231F20"/>
<path d="M472.442 312.198H541.018V318.259H488.148V363.493H536.25V369.554H488.148V417.819H542V423.879H472.442V312.218V312.198Z" fill="#231F20"/>
<path opacity="0.39" d="M380.946 92.6483C372.251 98.3478 363.015 103.525 353.94 108.683C330.28 122.129 306.239 134.933 282.639 148.519L280.555 149.221L181.106 93.5514C182.588 91.966 184.832 90.9224 186.715 89.8387C200.94 81.6106 215.745 74.2856 230.109 66.2783C247.138 56.8059 263.947 46.9322 281.016 37.5L380.926 92.6483H380.946Z" fill="#231F20"/>
<path opacity="0.8" d="M376.398 156.426L375.817 157.45C345.365 172.782 316.296 191.084 285.824 206.357C284.622 206.959 282.238 208.424 281.036 208.424L189.46 158.313L186.575 156.185C210.416 143.241 233.936 129.695 257.736 116.67C265.409 112.476 273.182 108.141 281.036 104.408C294.018 110.449 306.199 118.115 318.74 125.039C337.893 135.595 357.165 145.99 376.398 156.426Z" fill="#231F20"/>
<path d="M75.566 492.474H80.7749V527.493H96.7221V529.5H75.566V492.474Z" fill="#231F20"/>
<path d="M113.35 492.474H118.038L130.64 529.5H125.251L121.444 518.221H106.759L102.993 529.5H100.909L113.37 492.474H113.35ZM107.46 516.195H120.763L114.072 496.427L107.46 516.195Z" fill="#231F20"/>
<path d="M143.121 515.532L130.9 492.453H136.75L147.308 512.622L157.906 492.453H160.33L148.33 515.332V529.48H143.121V515.532Z" fill="#231F20"/>
<path d="M167.382 492.474H190.121V494.48H172.591V509.472H188.538V511.478H172.591V527.473H190.442V529.48H167.382V492.453V492.474Z" fill="#231F20"/>
<path d="M210.736 514.629H203.905V529.48H198.836V492.453H210.977C219.151 492.453 224.419 495.705 224.419 503.391C224.419 509.211 221.314 512.763 216.105 514.067L224.56 529.46H218.97L210.736 514.609V514.629ZM210.876 512.582C216.827 512.582 219.151 510.174 219.151 503.411C219.151 496.648 216.827 494.48 210.596 494.48H203.905V512.582H210.876Z" fill="#231F20"/>
<path d="M247.138 492.474H252.347V529.5H247.138V492.474Z" fill="#231F20"/>
<path d="M263.085 492.474H268.294V529.5H263.085V492.474Z" fill="#231F20"/>
<path d="M292.155 492.474H297.364V527.493H313.311V529.5H292.155V492.474Z" fill="#231F20"/>
<path d="M320.743 492.474H325.952V529.5H320.743V492.474Z" fill="#231F20"/>
<path d="M338.313 498.494V529.5H336.31V492.474H341.559L353.459 524.322L365.319 492.474H370.428V529.5H365.319V498.253L353.74 529.5H349.973L338.293 498.494H338.313Z" fill="#231F20"/>
<path d="M380.826 492.474H386.035V529.5H380.826V492.474Z" fill="#231F20"/>
<path d="M393.467 492.474H421.314V494.48H409.975V529.5H404.806V494.48H393.467V492.474Z" fill="#231F20"/>
<path d="M428.387 492.474H451.125V494.48H433.595V509.472H449.543V511.478H433.595V527.473H451.446V529.48H428.387V492.453V492.474Z" fill="#231F20"/>
<path d="M459.82 492.474H471.62C482.679 492.474 487.748 499.136 487.748 511.037C487.748 522.938 482.679 529.5 471.62 529.5H459.82V492.474ZM471.019 527.473C479.073 527.473 482.318 523.158 482.318 510.917C482.318 498.675 479.073 494.46 471.019 494.46H464.929V527.473H471.019Z" fill="#231F20"/>
</svg>
